Coordinates
version=1
nRows=63
nColumns=11
inDegrees=no

Units are S.I. units (second, meters, Newtons, ...)
If the header above contains a line with 'inDegrees', this indicates whether rotational values are in degrees (yes) or radians (no).

endheader
time	pelvis_tilt	pelvis_tx	pelvis_ty	hip_flexion_r	knee_angle_r	ankle_angle_r	hip_flexion_l	knee_angle_l	ankle_angle_l	lumbar_extension
211.04	-0.0463491	0.135507	0.983266	0.715254	-0.443933	0.14344	-0.211274	0.0997153	0.35236	0
211.05	-0.048345	0.135469	0.979654	0.713351	-0.394088	0.153183	-0.219889	0.0943971	0.366667	0
211.06	-0.0485898	0.135818	0.976313	0.709216	-0.351757	0.16345	-0.232787	0.0916013	0.376121	0
211.07	-0.0471802	0.136158	0.973225	0.703193	-0.319513	0.173606	-0.24758	0.0871885	0.385117	0
211.08	-0.0351512	0.138294	0.971085	0.683704	-0.295489	0.185131	-0.274262	0.0806489	0.400947	0
211.09	-0.03354	0.138605	0.968258	0.679109	-0.286054	0.194788	-0.284959	0.0689737	0.410741	0
211.1	-0.0343296	0.139027	0.965748	0.678897	-0.290274	0.20237	-0.290739	0.0544595	0.417008	0
211.11	-0.0521842	0.137338	0.962147	0.704471	-0.312214	0.199654	-0.272802	0.0371749	0.414754	0
211.12	-0.0381802	0.140167	0.961602	0.686124	-0.335957	0.192206	-0.29958	0.0245942	0.416028	0
211.13	-0.0399158	0.14104	0.959867	0.690883	-0.366501	0.179167	-0.301719	0.00550371	0.41424	0
211.14	-0.0590555	0.139378	0.957202	0.719242	-0.397253	0.165423	-0.279105	-0.0176525	0.404592	0
211.15	-0.0439923	0.14321	0.957898	0.698736	-0.415987	0.156042	-0.303605	-0.036968	0.401771	0
211.16	-0.0619058	0.141304	0.956366	0.72265	-0.440768	0.137103	-0.280715	-0.0660097	0.384486	0
211.17	-0.0445812	0.146217	0.958212	0.695809	-0.455372	0.122535	-0.306349	-0.0862932	0.370892	0
211.18	-0.0446262	0.148361	0.959042	0.692649	-0.475565	0.112382	-0.30623	-0.113011	0.348789	0
211.19	-0.0599243	0.147547	0.958978	0.70947	-0.498059	0.112915	-0.282137	-0.148464	0.321295	0
211.2	-0.0597964	0.150014	0.960484	0.702815	-0.512573	0.124819	-0.275867	-0.184015	0.289808	0
211.21	-0.059368	0.152072	0.962645	0.691142	-0.52193	0.14135	-0.266499	-0.224111	0.253015	0
211.22	-0.0589919	0.15418	0.965303	0.676972	-0.528003	0.156223	-0.25242	-0.269794	0.20851	0
211.23	-0.040089	0.158856	0.969904	0.633191	-0.52496	0.170871	-0.260607	-0.315463	0.162347	0
211.24	-0.0552575	0.158034	0.972229	0.634047	-0.521753	0.18319	-0.214215	-0.37536	0.0961168	0
211.25	-0.0379035	0.162225	0.976994	0.588568	-0.511452	0.201955	-0.20785	-0.434746	0.0393768	0
211.26	-0.0377433	0.163553	0.980791	0.564034	-0.499011	0.215623	-0.171311	-0.503011	-0.0273973	0
211.27	-0.0383585	0.164395	0.984464	0.539855	-0.48411	0.226479	-0.129858	-0.575174	-0.090921	0
211.28	-0.0369113	0.164972	0.988156	0.51305	-0.468586	0.233349	-0.0877592	-0.648327	-0.161144	0
211.29	-0.0559904	0.161579	0.989844	0.514995	-0.454488	0.239976	-0.0137069	-0.724911	-0.236007	0
211.3	-0.0574064	0.161303	0.992683	0.493421	-0.439166	0.249817	0.0313486	-0.786278	-0.307384	0
211.31	-0.0574275	0.161464	0.995803	0.466925	-0.419886	0.260161	0.0707626	-0.840692	-0.349977	0
211.32	-0.0454685	0.164129	0.99987	0.422722	-0.397505	0.270603	0.0905877	-0.88767	-0.354413	0
211.33	-0.0483651	0.162861	1.00243	0.400273	-0.377127	0.274308	0.133691	-0.937906	-0.336411	0
211.34	-0.0626615	0.159043	1.00425	0.39099	-0.352215	0.271802	0.192626	-0.984194	-0.303621	0
211.35	-0.0461968	0.161964	1.00884	0.341213	-0.32841	0.274105	0.19882	-1.00475	-0.261906	0
211.36	-0.0636017	0.157725	1.00967	0.336738	-0.301655	0.268825	0.262705	-1.04201	-0.217568	0
211.37	-0.0508735	0.159704	1.01312	0.292456	-0.277757	0.272731	0.273762	-1.05473	-0.174623	0
211.38	-0.0508897	0.159192	1.01516	0.263689	-0.251388	0.273514	0.305406	-1.07064	-0.13241	0
211.39	-0.052497	0.158466	1.01691	0.24008	-0.228807	0.272801	0.339064	-1.0809	-0.101597	0
211.4	-0.0500846	0.157872	1.01885	0.209556	-0.204132	0.271242	0.364296	-1.08377	-0.0781796	0
211.41	-0.0507092	0.156649	1.02025	0.186136	-0.183518	0.266665	0.393825	-1.083	-0.0592428	0
211.42	-0.0649137	0.152334	1.01998	0.182217	-0.16405	0.259248	0.444274	-1.08367	-0.0430959	0
211.43	-0.0658796	0.150812	1.02061	0.159466	-0.144837	0.259746	0.470226	-1.07323	-0.0241381	0
211.44	-0.0672992	0.149226	1.02078	0.138421	-0.126494	0.260738	0.49638	-1.05887	-0.00697168	0
211.45	-0.0662671	0.14798	1.02112	0.114947	-0.110084	0.260485	0.51724	-1.03909	0.00698744	0
211.46	-0.0661939	0.146877	1.02118	0.0944215	-0.0963039	0.258018	0.53768	-1.01503	0.0228477	0
211.47	-0.0526521	0.14845	1.02217	0.0570542	-0.0855224	0.263595	0.53476	-0.981174	0.0383547	0
211.48	-0.0531675	0.146963	1.02118	0.0378158	-0.0728368	0.268947	0.55374	-0.95047	0.0534856	0
211.49	-0.0544636	0.14543	1.01985	0.0220012	-0.0645537	0.276218	0.572702	-0.917495	0.0669352	0
211.5	-0.0554874	0.144011	1.01829	0.00582945	-0.0567152	0.281978	0.588857	-0.88022	0.0785329	0
211.51	-0.0576246	0.142408	1.01638	-0.00697434	-0.0522442	0.290578	0.604038	-0.839345	0.0879536	0
211.52	-0.0733941	0.138514	1.01306	-0.00233729	-0.0468066	0.293797	0.637571	-0.799182	0.0958996	0
211.53	-0.0603374	0.139972	1.01217	-0.036689	-0.0407547	0.305875	0.627132	-0.748537	0.100248	0
211.54	-0.0759537	0.135777	1.00842	-0.0318198	-0.0369576	0.31006	0.655399	-0.698635	0.106105	0
211.55	-0.0767724	0.1353	1.00587	-0.0463514	-0.0325415	0.317702	0.661272	-0.643612	0.106582	0
211.56	-0.0775239	0.134664	1.00284	-0.0613048	-0.0280023	0.326647	0.66654	-0.590349	0.1057	0
211.57	-0.0628527	0.137023	1.00115	-0.0988726	-0.0197924	0.339425	0.645971	-0.529722	0.107098	0
211.58	-0.0628546	0.136629	0.997948	-0.116131	-0.0129386	0.346314	0.6417	-0.464863	0.108646	0
211.59	-0.0628252	0.136234	0.99459	-0.132393	-0.00849699	0.35247	0.637889	-0.402107	0.109562	0
211.6	-0.0631843	0.135745	0.991166	-0.146938	-0.00676383	0.358965	0.633832	-0.342574	0.110652	0
211.61	-0.0635143	0.135698	0.987473	-0.159642	-0.00813329	0.370429	0.630174	-0.289396	0.114686	0
211.62	-0.0802105	0.132717	0.982361	-0.148787	-0.0137378	0.375123	0.649401	-0.24511	0.113596	0
211.63	-0.0820971	0.132498	0.978603	-0.157212	-0.0190548	0.381954	0.649978	-0.20766	0.118541	0
211.64	-0.083354	0.132554	0.975095	-0.166413	-0.026328	0.392611	0.651367	-0.183163	0.128546	0
211.65	-0.070867	0.135044	0.973171	-0.194355	-0.0326142	0.403536	0.633548	-0.165955	0.146024	0
211.66	-0.0765704	0.134287	0.970031	-0.19618	-0.0444664	0.406369	0.640777	-0.163243	0.155799	0
